<svg width="57" height="22" viewBox="0 0 57 22" fill="none" xmlns="http://www.w3.org/2000/svg">
<mask id="path-1-outside-1_5_4" maskUnits="userSpaceOnUse" x="-1" y="-1" width="59" height="24" fill="black">
<rect fill="white" x="-1" y="-1" width="59" height="24"/>
<path d="M8.67045 21.2884C7.05966 21.2884 5.67756 20.9569 4.52415 20.294C3.37737 19.6312 2.49574 18.7098 1.87926 17.5298C1.26278 16.3433 0.954545 14.9711 0.954545 13.4134C0.954545 11.849 1.26278 10.4768 1.87926 9.29688C2.50237 8.11032 3.38731 7.18561 4.53409 6.52273C5.6875 5.85985 7.06297 5.52841 8.66051 5.52841C10.0724 5.52841 11.3021 5.78362 12.3494 6.29403C13.4034 6.80445 14.2254 7.52699 14.8153 8.46165C15.4119 9.38968 15.7268 10.4801 15.7599 11.733H11.2159C11.1231 10.9508 10.858 10.3376 10.4205 9.89347C9.98958 9.44934 9.42614 9.22727 8.73011 9.22727C8.16667 9.22727 7.67282 9.38636 7.24858 9.70455C6.82434 10.0161 6.4929 10.4801 6.25426 11.0966C6.02225 11.7064 5.90625 12.4621 5.90625 13.3636C5.90625 14.2652 6.02225 15.0275 6.25426 15.6506C6.4929 16.267 6.82434 16.7344 7.24858 17.0526C7.67282 17.3641 8.16667 17.5199 8.73011 17.5199C9.18087 17.5199 9.5786 17.4238 9.9233 17.2315C10.2746 17.0393 10.563 16.7576 10.7884 16.3864C11.0137 16.0085 11.1562 15.5511 11.2159 15.0142H15.7599C15.7135 16.2737 15.3987 17.3741 14.8153 18.3153C14.2386 19.2566 13.4266 19.9891 12.3793 20.5128C11.3385 21.0298 10.1023 21.2884 8.67045 21.2884ZM22.5536 21.2585C21.5792 21.2585 20.7141 21.0961 19.9585 20.7713C19.2094 20.4399 18.6161 19.9427 18.1786 19.2798C17.7478 18.6103 17.5323 17.7718 17.5323 16.7642C17.5323 15.9157 17.6815 15.1998 17.9798 14.6165C18.2781 14.0331 18.689 13.5592 19.2127 13.1946C19.7364 12.83 20.3396 12.5549 21.0224 12.3693C21.7051 12.1771 22.4343 12.0478 23.2099 11.9815C24.0782 11.902 24.7776 11.8191 25.3079 11.733C25.8382 11.6402 26.2227 11.5109 26.4613 11.3452C26.7066 11.1728 26.8292 10.9309 26.8292 10.6193V10.5696C26.8292 10.0592 26.6535 9.66477 26.3022 9.38636C25.9509 9.10795 25.4769 8.96875 24.8803 8.96875C24.2373 8.96875 23.7203 9.10795 23.3292 9.38636C22.9381 9.66477 22.6895 10.0492 22.5835 10.5398L18.0991 10.3807C18.2317 9.45265 18.573 8.62405 19.1232 7.89489C19.68 7.15909 20.4424 6.58239 21.4102 6.16477C22.3846 5.74053 23.5546 5.52841 24.9201 5.52841C25.8945 5.52841 26.7927 5.64441 27.6147 5.87642C28.4367 6.1018 29.1526 6.43324 29.7624 6.87074C30.3723 7.30161 30.8429 7.83191 31.1744 8.46165C31.5124 9.09138 31.6815 9.81061 31.6815 10.6193V21H27.1076V18.8722H26.9883C26.7165 19.3892 26.3685 19.8267 25.9442 20.1847C25.5266 20.5426 25.0328 20.8111 24.4627 20.9901C23.8993 21.169 23.2629 21.2585 22.5536 21.2585ZM24.055 18.0767C24.5787 18.0767 25.0494 17.9706 25.467 17.7585C25.8912 17.5464 26.2293 17.2547 26.4812 16.8835C26.7331 16.5057 26.859 16.0682 26.859 15.571V14.1193C26.7198 14.1922 26.5508 14.2585 26.3519 14.3182C26.1597 14.3778 25.9476 14.4342 25.7156 14.4872C25.4835 14.5402 25.2449 14.5866 24.9996 14.6264C24.7544 14.6662 24.5191 14.7027 24.2937 14.7358C23.8363 14.8087 23.4452 14.9214 23.1204 15.0739C22.8022 15.2263 22.5569 15.4252 22.3846 15.6705C22.2189 15.9091 22.136 16.1941 22.136 16.5256C22.136 17.0294 22.315 17.4138 22.6729 17.679C23.0375 17.9441 23.4982 18.0767 24.055 18.0767ZM39.5167 0.636363V21H34.6545V0.636363H39.5167ZM49.7408 21.2884C48.13 21.2884 46.7479 20.9569 45.5945 20.294C44.4477 19.6312 43.5661 18.7098 42.9496 17.5298C42.3331 16.3433 42.0249 14.9711 42.0249 13.4134C42.0249 11.849 42.3331 10.4768 42.9496 9.29688C43.5727 8.11032 44.4576 7.18561 45.6044 6.52273C46.7578 5.85985 48.1333 5.52841 49.7308 5.52841C51.1428 5.52841 52.3724 5.78362 53.4197 6.29403C54.4737 6.80445 55.2957 7.52699 55.8857 8.46165C56.4822 9.38968 56.7971 10.4801 56.8303 11.733H52.2862C52.1934 10.9508 51.9283 10.3376 51.4908 9.89347C51.0599 9.44934 50.4964 9.22727 49.8004 9.22727C49.237 9.22727 48.7431 9.38636 48.3189 9.70455C47.8946 10.0161 47.5632 10.4801 47.3246 11.0966C47.0926 11.7064 46.9766 12.4621 46.9766 13.3636C46.9766 14.2652 47.0926 15.0275 47.3246 15.6506C47.5632 16.267 47.8946 16.7344 48.3189 17.0526C48.7431 17.3641 49.237 17.5199 49.8004 17.5199C50.2512 17.5199 50.6489 17.4238 50.9936 17.2315C51.3449 17.0393 51.6333 16.7576 51.8587 16.3864C52.084 16.0085 52.2266 15.5511 52.2862 15.0142H56.8303C56.7839 16.2737 56.469 17.3741 55.8857 18.3153C55.3089 19.2566 54.4969 19.9891 53.4496 20.5128C52.4089 21.0298 51.1726 21.2884 49.7408 21.2884Z"/>
</mask>
<path d="M8.67045 21.2884C7.05966 21.2884 5.67756 20.9569 4.52415 20.294C3.37737 19.6312 2.49574 18.7098 1.87926 17.5298C1.26278 16.3433 0.954545 14.9711 0.954545 13.4134C0.954545 11.849 1.26278 10.4768 1.87926 9.29688C2.50237 8.11032 3.38731 7.18561 4.53409 6.52273C5.6875 5.85985 7.06297 5.52841 8.66051 5.52841C10.0724 5.52841 11.3021 5.78362 12.3494 6.29403C13.4034 6.80445 14.2254 7.52699 14.8153 8.46165C15.4119 9.38968 15.7268 10.4801 15.7599 11.733H11.2159C11.1231 10.9508 10.858 10.3376 10.4205 9.89347C9.98958 9.44934 9.42614 9.22727 8.73011 9.22727C8.16667 9.22727 7.67282 9.38636 7.24858 9.70455C6.82434 10.0161 6.4929 10.4801 6.25426 11.0966C6.02225 11.7064 5.90625 12.4621 5.90625 13.3636C5.90625 14.2652 6.02225 15.0275 6.25426 15.6506C6.4929 16.267 6.82434 16.7344 7.24858 17.0526C7.67282 17.3641 8.16667 17.5199 8.73011 17.5199C9.18087 17.5199 9.5786 17.4238 9.9233 17.2315C10.2746 17.0393 10.563 16.7576 10.7884 16.3864C11.0137 16.0085 11.1562 15.5511 11.2159 15.0142H15.7599C15.7135 16.2737 15.3987 17.3741 14.8153 18.3153C14.2386 19.2566 13.4266 19.9891 12.3793 20.5128C11.3385 21.0298 10.1023 21.2884 8.67045 21.2884ZM22.5536 21.2585C21.5792 21.2585 20.7141 21.0961 19.9585 20.7713C19.2094 20.4399 18.6161 19.9427 18.1786 19.2798C17.7478 18.6103 17.5323 17.7718 17.5323 16.7642C17.5323 15.9157 17.6815 15.1998 17.9798 14.6165C18.2781 14.0331 18.689 13.5592 19.2127 13.1946C19.7364 12.83 20.3396 12.5549 21.0224 12.3693C21.7051 12.1771 22.4343 12.0478 23.2099 11.9815C24.0782 11.902 24.7776 11.8191 25.3079 11.733C25.8382 11.6402 26.2227 11.5109 26.4613 11.3452C26.7066 11.1728 26.8292 10.9309 26.8292 10.6193V10.5696C26.8292 10.0592 26.6535 9.66477 26.3022 9.38636C25.9509 9.10795 25.4769 8.96875 24.8803 8.96875C24.2373 8.96875 23.7203 9.10795 23.3292 9.38636C22.9381 9.66477 22.6895 10.0492 22.5835 10.5398L18.0991 10.3807C18.2317 9.45265 18.573 8.62405 19.1232 7.89489C19.68 7.15909 20.4424 6.58239 21.4102 6.16477C22.3846 5.74053 23.5546 5.52841 24.9201 5.52841C25.8945 5.52841 26.7927 5.64441 27.6147 5.87642C28.4367 6.1018 29.1526 6.43324 29.7624 6.87074C30.3723 7.30161 30.8429 7.83191 31.1744 8.46165C31.5124 9.09138 31.6815 9.81061 31.6815 10.6193V21H27.1076V18.8722H26.9883C26.7165 19.3892 26.3685 19.8267 25.9442 20.1847C25.5266 20.5426 25.0328 20.8111 24.4627 20.9901C23.8993 21.169 23.2629 21.2585 22.5536 21.2585ZM24.055 18.0767C24.5787 18.0767 25.0494 17.9706 25.467 17.7585C25.8912 17.5464 26.2293 17.2547 26.4812 16.8835C26.7331 16.5057 26.859 16.0682 26.859 15.571V14.1193C26.7198 14.1922 26.5508 14.2585 26.3519 14.3182C26.1597 14.3778 25.9476 14.4342 25.7156 14.4872C25.4835 14.5402 25.2449 14.5866 24.9996 14.6264C24.7544 14.6662 24.5191 14.7027 24.2937 14.7358C23.8363 14.8087 23.4452 14.9214 23.1204 15.0739C22.8022 15.2263 22.5569 15.4252 22.3846 15.6705C22.2189 15.9091 22.136 16.1941 22.136 16.5256C22.136 17.0294 22.315 17.4138 22.6729 17.679C23.0375 17.9441 23.4982 18.0767 24.055 18.0767ZM39.5167 0.636363V21H34.6545V0.636363H39.5167ZM49.7408 21.2884C48.13 21.2884 46.7479 20.9569 45.5945 20.294C44.4477 19.6312 43.5661 18.7098 42.9496 17.5298C42.3331 16.3433 42.0249 14.9711 42.0249 13.4134C42.0249 11.849 42.3331 10.4768 42.9496 9.29688C43.5727 8.11032 44.4576 7.18561 45.6044 6.52273C46.7578 5.85985 48.1333 5.52841 49.7308 5.52841C51.1428 5.52841 52.3724 5.78362 53.4197 6.29403C54.4737 6.80445 55.2957 7.52699 55.8857 8.46165C56.4822 9.38968 56.7971 10.4801 56.8303 11.733H52.2862C52.1934 10.9508 51.9283 10.3376 51.4908 9.89347C51.0599 9.44934 50.4964 9.22727 49.8004 9.22727C49.237 9.22727 48.7431 9.38636 48.3189 9.70455C47.8946 10.0161 47.5632 10.4801 47.3246 11.0966C47.0926 11.7064 46.9766 12.4621 46.9766 13.3636C46.9766 14.2652 47.0926 15.0275 47.3246 15.6506C47.5632 16.267 47.8946 16.7344 48.3189 17.0526C48.7431 17.3641 49.237 17.5199 49.8004 17.5199C50.2512 17.5199 50.6489 17.4238 50.9936 17.2315C51.3449 17.0393 51.6333 16.7576 51.8587 16.3864C52.084 16.0085 52.2266 15.5511 52.2862 15.0142H56.8303C56.7839 16.2737 56.469 17.3741 55.8857 18.3153C55.3089 19.2566 54.4969 19.9891 53.4496 20.5128C52.4089 21.0298 51.1726 21.2884 49.7408 21.2884Z" fill="#1E1E1E"/>
<path d="M4.52415 20.294L4.0237 21.1598L4.02586 21.161L4.52415 20.294ZM1.87926 17.5298L0.99188 17.9909L0.992943 17.9929L1.87926 17.5298ZM1.87926 9.29688L0.993912 8.83194L0.992943 8.8338L1.87926 9.29688ZM4.53409 6.52273L4.03581 5.65571L4.03365 5.65696L4.53409 6.52273ZM12.3494 6.29403L11.9113 7.19297L11.9136 7.19405L12.3494 6.29403ZM14.8153 8.46165L13.9697 8.99543L13.9742 9.00241L14.8153 8.46165ZM15.7599 11.733V12.733H16.7867L16.7596 11.7065L15.7599 11.733ZM11.2159 11.733L10.2229 11.8508L10.3275 12.733H11.2159V11.733ZM10.4205 9.89347L9.70269 10.5898L9.70805 10.5952L10.4205 9.89347ZM7.24858 9.70455L7.84052 10.5106L7.84858 10.5045L7.24858 9.70455ZM6.25426 11.0966L5.32168 10.7356L5.31961 10.741L6.25426 11.0966ZM6.25426 15.6506L5.31704 15.9995L5.32169 16.0116L6.25426 15.6506ZM7.24858 17.0526L6.64855 17.8526L6.65667 17.8586L7.24858 17.0526ZM9.9233 17.2315L9.44327 16.3542L9.43623 16.3582L9.9233 17.2315ZM10.7884 16.3864L11.6432 16.9054L11.6472 16.8986L10.7884 16.3864ZM11.2159 15.0142V14.0142H10.3209L10.222 14.9038L11.2159 15.0142ZM15.7599 15.0142L16.7593 15.051L16.7975 14.0142H15.7599V15.0142ZM14.8153 18.3153L13.9653 17.7886L13.9627 17.7929L14.8153 18.3153ZM12.3793 20.5128L12.8242 21.4084L12.8265 21.4072L12.3793 20.5128ZM8.67045 20.2884C7.19774 20.2884 5.99524 19.9861 5.02243 19.427L4.02586 21.161C5.35987 21.9277 6.92158 22.2884 8.67045 22.2884V20.2884ZM5.02459 19.4283C4.0429 18.8608 3.2947 18.0795 2.76558 17.0668L0.992943 17.9929C1.69678 19.34 2.71183 20.4015 4.0237 21.1598L5.02459 19.4283ZM2.76664 17.0688C2.23549 16.0465 1.95455 14.8371 1.95455 13.4134H-0.0454545C-0.0454545 15.1051 0.290083 16.6401 0.991882 17.9909L2.76664 17.0688ZM1.95455 13.4134C1.95455 11.982 2.23584 10.7739 2.76558 9.75995L0.992943 8.8338C0.289729 10.1797 -0.0454545 11.7159 -0.0454545 13.4134H1.95455ZM2.76461 9.76181C3.30096 8.74046 4.05338 7.95564 5.03454 7.38849L4.03365 5.65696C2.72124 6.41558 1.70378 7.48019 0.993914 8.83194L2.76461 9.76181ZM5.03237 7.38974C6.00637 6.82998 7.2027 6.52841 8.66051 6.52841V4.52841C6.92325 4.52841 5.36863 4.88972 4.03581 5.65571L5.03237 7.38974ZM8.66051 6.52841C9.95231 6.52841 11.0263 6.76166 11.9113 7.19297L12.7875 5.3951C11.5778 4.80557 10.1926 4.52841 8.66051 4.52841V6.52841ZM11.9136 7.19405C12.8099 7.62812 13.4855 8.22826 13.9697 8.99541L15.661 7.92788C14.9653 6.82572 13.9969 5.98079 12.7853 5.39402L11.9136 7.19405ZM13.9742 9.00241C14.459 9.75665 14.7313 10.6639 14.7603 11.7594L16.7596 11.7065C16.7223 10.2964 16.3648 9.02271 15.6565 7.92089L13.9742 9.00241ZM15.7599 10.733H11.2159V12.733H15.7599V10.733ZM12.2089 11.6151C12.097 10.6715 11.7632 9.8316 11.1329 9.1917L9.70805 10.5952C9.9527 10.8436 10.1492 11.23 10.2229 11.8508L12.2089 11.6151ZM11.1382 9.19715C10.4947 8.53384 9.65958 8.22727 8.73011 8.22727V10.2273C9.19269 10.2273 9.48449 10.3648 9.70272 10.5898L11.1382 9.19715ZM8.73011 8.22727C7.96471 8.22727 7.2571 8.44815 6.64858 8.90455L7.84858 10.5045C8.08854 10.3246 8.36863 10.2273 8.73011 10.2273V8.22727ZM6.65667 8.89854C6.04383 9.3486 5.61161 9.98665 5.32169 10.7356L7.18683 11.4576C7.37419 10.9736 7.60485 10.6836 7.84049 10.5105L6.65667 8.89854ZM5.31961 10.741C5.03135 11.4987 4.90625 12.3837 4.90625 13.3636H6.90625C6.90625 12.5405 7.01316 11.9141 7.18891 11.4522L5.31961 10.741ZM4.90625 13.3636C4.90625 14.3446 5.03165 15.2328 5.31712 15.9995L7.19141 15.3016C7.01286 14.8221 6.90625 14.1857 6.90625 13.3636H4.90625ZM5.32169 16.0116C5.61131 16.7597 6.04162 17.3973 6.64858 17.8526L7.84858 16.2526C7.60705 16.0714 7.37448 15.7743 7.18683 15.2896L5.32169 16.0116ZM6.65667 17.8586C7.26493 18.3053 7.96966 18.5199 8.73011 18.5199V16.5199C8.36367 16.5199 8.08071 16.423 7.84049 16.2466L6.65667 17.8586ZM8.73011 18.5199C9.32682 18.5199 9.8967 18.3914 10.4104 18.1049L9.43623 16.3582C9.2605 16.4562 9.03492 16.5199 8.73011 16.5199V18.5199ZM10.4033 18.1088C10.9218 17.8251 11.3344 17.4138 11.6431 16.9053L9.93357 15.8674C9.7915 16.1014 9.62747 16.2535 9.44328 16.3543L10.4033 18.1088ZM11.6472 16.8986C11.9605 16.3734 12.1379 15.772 12.2098 15.1246L10.222 14.9038C10.1746 15.3303 10.067 15.6437 9.92953 15.8741L11.6472 16.8986ZM11.2159 16.0142H15.7599V14.0142H11.2159V16.0142ZM14.7606 14.9774C14.7197 16.0877 14.4452 17.0143 13.9653 17.7886L15.6654 18.8421C16.3522 17.7338 16.7074 16.4597 16.7593 15.051L14.7606 14.9774ZM13.9627 17.7929C13.4897 18.5649 12.8227 19.173 11.932 19.6184L12.8265 21.4072C14.0305 20.8052 14.9876 19.9484 15.668 18.8378L13.9627 17.7929ZM11.9343 19.6172C11.0602 20.0515 9.98305 20.2884 8.67045 20.2884V22.2884C10.2215 22.2884 11.6168 22.0082 12.8242 21.4083L11.9343 19.6172ZM19.9585 20.7713L19.5538 21.6858L19.5636 21.69L19.9585 20.7713ZM18.1786 19.2798L17.3377 19.821L17.344 19.8307L18.1786 19.2798ZM17.9798 14.6165L17.0894 14.1612V14.1612L17.9798 14.6165ZM19.2127 13.1946L19.7841 14.0153L19.2127 13.1946ZM21.0224 12.3693L21.2847 13.3343L21.2934 13.3319L21.0224 12.3693ZM23.2099 11.9815L23.295 12.9779L23.3011 12.9774L23.2099 11.9815ZM25.3079 11.733L25.4683 12.7201L25.4803 12.718L25.3079 11.733ZM26.4613 11.3452L27.0317 12.1666L27.0362 12.1634L26.4613 11.3452ZM26.3022 9.38636L26.9233 8.60262L26.3022 9.38636ZM23.3292 9.38636L22.7493 8.5717L22.7493 8.5717L23.3292 9.38636ZM22.5835 10.5398L22.548 11.5391L23.3841 11.5688L23.5609 10.7511L22.5835 10.5398ZM18.0991 10.3807L17.1091 10.2393L16.9518 11.3406L18.0636 11.3801L18.0991 10.3807ZM19.1232 7.89489L18.3258 7.29144L18.325 7.29257L19.1232 7.89489ZM21.4102 6.16477L21.8064 7.08294L21.8093 7.08164L21.4102 6.16477ZM27.6147 5.87642L27.3431 6.83884L27.3503 6.84082L27.6147 5.87642ZM29.7624 6.87074L29.1795 7.6833L29.1854 7.68746L29.7624 6.87074ZM31.1744 8.46165L30.2894 8.92741L30.2933 8.93464L31.1744 8.46165ZM31.6815 21V22H32.6815V21H31.6815ZM27.1076 21H26.1076V22H27.1076V21ZM27.1076 18.8722H28.1076V17.8722H27.1076V18.8722ZM26.9883 18.8722V17.8722H26.3842L26.1031 18.4069L26.9883 18.8722ZM25.9442 20.1847L25.2994 19.4203L25.2935 19.4254L25.9442 20.1847ZM24.4627 20.9901L24.1632 20.036L24.16 20.037L24.4627 20.9901ZM25.467 17.7585L25.0198 16.8641L25.0141 16.8669L25.467 17.7585ZM26.4812 16.8835L27.3087 17.445L27.3132 17.4382L26.4812 16.8835ZM26.859 14.1193H27.859V12.4666L26.395 13.2335L26.859 14.1193ZM26.3519 14.3182L26.0646 13.3603L26.0555 13.3631L26.3519 14.3182ZM24.9996 14.6264L25.1597 15.6135V15.6135L24.9996 14.6264ZM24.2937 14.7358L24.1482 13.7464L24.1362 13.7483L24.2937 14.7358ZM23.1204 15.0739L22.6955 14.1686L22.6883 14.172L23.1204 15.0739ZM22.3846 15.6705L21.5664 15.0955L21.5632 15.1001L22.3846 15.6705ZM22.6729 17.679L22.0777 18.4826L22.0848 18.4877L22.6729 17.679ZM22.5536 20.2585C21.6903 20.2585 20.9634 20.1148 20.3533 19.8526L19.5636 21.69C20.4648 22.0774 21.4681 22.2585 22.5536 22.2585V20.2585ZM20.3631 19.8568C19.7834 19.6003 19.3418 19.2268 19.0132 18.729L17.344 19.8307C17.8905 20.6587 18.6354 21.2794 19.5538 21.6858L20.3631 19.8568ZM19.0195 18.7387C18.7169 18.2684 18.5323 17.6305 18.5323 16.7642H16.5323C16.5323 17.913 16.7786 18.9522 17.3377 19.821L19.0195 18.7387ZM18.5323 16.7642C18.5323 16.0289 18.662 15.4788 18.8701 15.0718L17.0894 14.1612C16.701 14.9208 16.5323 15.8026 16.5323 16.7642H18.5323ZM18.8701 15.0718C19.0958 14.6305 19.3988 14.2835 19.7841 14.0153L18.6413 12.3739C17.9793 12.8348 17.4604 13.4358 17.0894 14.1612L18.8701 15.0718ZM19.7841 14.0153C20.2041 13.7229 20.7005 13.4931 21.2847 13.3343L20.76 11.4043C19.9787 11.6167 19.2687 11.9372 18.6413 12.3739L19.7841 14.0153ZM21.2934 13.3319C21.9099 13.1583 22.5763 13.0393 23.295 12.9779L23.1247 10.9852C22.2923 11.0563 21.5004 11.1958 20.7514 11.4067L21.2934 13.3319ZM23.3011 12.9774C24.1803 12.8968 24.9054 12.8115 25.4683 12.72L25.1475 10.7459C24.6497 10.8268 23.9762 10.9072 23.1187 10.9857L23.3011 12.9774ZM25.4803 12.718C26.0519 12.6179 26.6111 12.4586 27.0317 12.1665L25.8909 10.5238C25.8342 10.5632 25.6244 10.6624 25.1355 10.7479L25.4803 12.718ZM27.0362 12.1634C27.5602 11.7952 27.8292 11.2413 27.8292 10.6193H25.8292C25.8292 10.6414 25.8257 10.621 25.8452 10.5824C25.8542 10.5647 25.8647 10.5499 25.8745 10.5389C25.884 10.5282 25.8894 10.5248 25.8863 10.527L27.0362 12.1634ZM27.8292 10.6193V10.5696H25.8292V10.6193H27.8292ZM27.8292 10.5696C27.8292 9.80168 27.5492 9.09859 26.9233 8.60262L25.6811 10.1701C25.7579 10.231 25.8292 10.3167 25.8292 10.5696H27.8292ZM26.9233 8.60262C26.3445 8.14394 25.6278 7.96875 24.8803 7.96875V9.96875C25.3261 9.96875 25.5573 10.072 25.6811 10.1701L26.9233 8.60262ZM24.8803 7.96875C24.099 7.96875 23.3587 8.13787 22.7493 8.5717L23.9091 10.201C24.0819 10.078 24.3757 9.96875 24.8803 9.96875V7.96875ZM22.7493 8.5717C22.1452 9.0017 21.7621 9.60644 21.606 10.3284L23.5609 10.7511C23.6169 10.492 23.731 10.3278 23.9091 10.201L22.7493 8.5717ZM22.6189 9.5404L18.1345 9.38131L18.0636 11.3801L22.548 11.5391L22.6189 9.5404ZM19.089 10.5221C19.1983 9.75686 19.4759 9.08776 19.9215 8.49721L18.325 7.29257C17.6702 8.16034 17.265 9.14845 17.1091 10.2393L19.089 10.5221ZM19.9206 8.49833C20.3591 7.91897 20.9743 7.44196 21.8064 7.08294L21.014 5.24661C19.9104 5.72281 19.001 6.39921 18.3258 7.29144L19.9206 8.49833ZM21.8093 7.08164C22.6274 6.72546 23.6544 6.52841 24.9201 6.52841V4.52841C23.4548 4.52841 22.1417 4.7556 21.011 5.2479L21.8093 7.08164ZM24.9201 6.52841C25.8154 6.52841 26.6209 6.63498 27.3431 6.83882L27.8863 4.91402C26.9646 4.65384 25.9737 4.52841 24.9201 4.52841V6.52841ZM27.3503 6.84082C28.0733 7.03906 28.6781 7.32357 29.1795 7.68328L30.3453 6.0582C29.627 5.5429 28.8001 5.16454 27.8791 4.91202L27.3503 6.84082ZM29.1854 7.68746C29.6729 8.0319 30.0351 8.44423 30.2894 8.92739L32.0593 7.9959C31.6507 7.2196 31.0716 6.57132 30.3395 6.05402L29.1854 7.68746ZM30.2933 8.93464C30.5435 9.40074 30.6815 9.95369 30.6815 10.6193H32.6815C32.6815 9.66752 32.4813 8.78203 32.0554 7.98866L30.2933 8.93464ZM30.6815 10.6193V21H32.6815V10.6193H30.6815ZM31.6815 20H27.1076V22H31.6815V20ZM28.1076 21V18.8722H26.1076V21H28.1076ZM27.1076 17.8722H26.9883V19.8722H27.1076V17.8722ZM26.1031 18.4069C25.8882 18.8158 25.6199 19.15 25.2994 19.4204L26.5891 20.9489C27.1171 20.5035 27.5448 19.9627 27.8734 19.3374L26.1031 18.4069ZM25.2935 19.4254C24.9871 19.688 24.6154 19.894 24.1632 20.036L24.7623 21.9441C25.4501 21.7282 26.0661 21.3973 26.595 20.9439L25.2935 19.4254ZM24.16 20.037C23.7117 20.1794 23.18 20.2585 22.5536 20.2585V22.2585C23.3458 22.2585 24.0868 22.1587 24.7655 21.9431L24.16 20.037ZM24.055 19.0767C24.7173 19.0767 25.3461 18.9415 25.9198 18.6501L25.0141 16.8669C24.7527 16.9997 24.4401 17.0767 24.055 17.0767V19.0767ZM25.9142 18.653C26.4825 18.3688 26.9551 17.9661 27.3087 17.445L25.6537 16.322C25.5035 16.5433 25.2999 16.724 25.0198 16.8641L25.9142 18.653ZM27.3132 17.4382C27.685 16.8806 27.859 16.2461 27.859 15.571H25.859C25.859 15.8903 25.7812 16.1308 25.6491 16.3288L27.3132 17.4382ZM27.859 15.571V14.1193H25.859V15.571H27.859ZM26.395 13.2335C26.3269 13.2692 26.2206 13.3136 26.0646 13.3604L26.6393 15.276C26.881 15.2035 27.1127 15.1153 27.323 15.0051L26.395 13.2335ZM26.0555 13.3631C25.8914 13.414 25.7043 13.464 25.4927 13.5124L25.9384 15.4621C26.1908 15.4044 26.4279 15.3416 26.6483 15.2732L26.0555 13.3631ZM25.4927 13.5124C25.2824 13.5604 25.0647 13.6028 24.8396 13.6393L25.1597 15.6135C25.4251 15.5705 25.6847 15.5201 25.9384 15.4621L25.4927 13.5124ZM24.8396 13.6393C24.5987 13.6784 24.3683 13.7141 24.1482 13.7464L24.4392 15.7252C24.6698 15.6912 24.91 15.654 25.1597 15.6135L24.8396 13.6393ZM24.1362 13.7483C23.6117 13.8319 23.1256 13.9667 22.6955 14.1686L23.5453 15.9791C23.7648 15.8761 24.0609 15.7855 24.4511 15.7233L24.1362 13.7483ZM22.6883 14.172C22.243 14.3854 21.8534 14.687 21.5664 15.0955L23.2028 16.2454C23.2604 16.1634 23.3614 16.0672 23.5525 15.9757L22.6883 14.172ZM21.5632 15.1001C21.2653 15.529 21.136 16.0199 21.136 16.5256H23.136C23.136 16.3683 23.1724 16.2892 23.206 16.2409L21.5632 15.1001ZM21.136 16.5256C21.136 17.2986 21.4292 18.0021 22.0777 18.4825L23.2682 16.8754C23.2008 16.8255 23.136 16.7601 23.136 16.5256H21.136ZM22.0848 18.4877C22.657 18.9039 23.3373 19.0767 24.055 19.0767V17.0767C23.6591 17.0767 23.418 16.9844 23.2611 16.8702L22.0848 18.4877ZM39.5167 0.636363H40.5167V-0.363637H39.5167V0.636363ZM39.5167 21V22H40.5167V21H39.5167ZM34.6545 21H33.6545V22H34.6545V21ZM34.6545 0.636363V-0.363637H33.6545V0.636363H34.6545ZM38.5167 0.636363V21H40.5167V0.636363H38.5167ZM39.5167 20H34.6545V22H39.5167V20ZM35.6545 21V0.636363H33.6545V21H35.6545ZM34.6545 1.63636H39.5167V-0.363637H34.6545V1.63636ZM45.5945 20.294L45.094 21.1598L45.0962 21.161L45.5945 20.294ZM42.9496 17.5298L42.0622 17.9909L42.0633 17.9929L42.9496 17.5298ZM42.9496 9.29688L42.0642 8.83194L42.0633 8.8338L42.9496 9.29688ZM45.6044 6.52273L45.1061 5.65571L45.104 5.65696L45.6044 6.52273ZM53.4197 6.29403L52.9817 7.19297L52.9839 7.19405L53.4197 6.29403ZM55.8857 8.46165L55.04 8.99543L55.0445 9.00241L55.8857 8.46165ZM56.8303 11.733V12.733H57.8571L57.8299 11.7065L56.8303 11.733ZM52.2862 11.733L51.2932 11.8508L51.3979 12.733H52.2862V11.733ZM51.4908 9.89347L50.773 10.5898L50.7784 10.5952L51.4908 9.89347ZM48.3189 9.70455L48.9108 10.5106L48.9189 10.5045L48.3189 9.70455ZM47.3246 11.0966L46.392 10.7356L46.3899 10.741L47.3246 11.0966ZM47.3246 15.6506L46.3874 15.9995L46.392 16.0116L47.3246 15.6506ZM48.3189 17.0526L47.7189 17.8526L47.727 17.8586L48.3189 17.0526ZM50.9936 17.2315L50.5136 16.3542L50.5065 16.3582L50.9936 17.2315ZM51.8587 16.3864L52.7135 16.9054L52.7175 16.8986L51.8587 16.3864ZM52.2862 15.0142V14.0142H51.3912L51.2923 14.9038L52.2862 15.0142ZM56.8303 15.0142L57.8296 15.051L57.8678 14.0142H56.8303V15.0142ZM55.8857 18.3153L55.0356 17.7886L55.033 17.7929L55.8857 18.3153ZM53.4496 20.5128L53.8945 21.4084L53.8968 21.4072L53.4496 20.5128ZM49.7408 20.2884C48.2681 20.2884 47.0656 19.9861 46.0927 19.427L45.0962 21.161C46.4302 21.9277 47.9919 22.2884 49.7408 22.2884V20.2884ZM46.0949 19.4283C45.1132 18.8608 44.365 18.0795 43.8359 17.0668L42.0633 17.9929C42.7671 19.34 43.7821 20.4015 45.094 21.1598L46.0949 19.4283ZM43.837 17.0688C43.3058 16.0465 43.0249 14.8371 43.0249 13.4134H41.0249C41.0249 15.1051 41.3604 16.6401 42.0622 17.9909L43.837 17.0688ZM43.0249 13.4134C43.0249 11.982 43.3062 10.7739 43.8359 9.75995L42.0633 8.8338C41.36 10.1797 41.0249 11.7159 41.0249 13.4134H43.0249ZM43.8349 9.76181C44.3713 8.74046 45.1237 7.95564 46.1048 7.38849L45.104 5.65696C43.7915 6.41558 42.7741 7.48019 42.0642 8.83194L43.8349 9.76181ZM46.1027 7.38974C47.0767 6.82998 48.273 6.52841 49.7308 6.52841V4.52841C47.9936 4.52841 46.4389 4.88972 45.1061 5.65571L46.1027 7.38974ZM49.7308 6.52841C51.0226 6.52841 52.0966 6.76166 52.9817 7.19297L53.8578 5.3951C52.6481 4.80557 51.2629 4.52841 49.7308 4.52841V6.52841ZM52.9839 7.19405C53.8802 7.62812 54.5558 8.22826 55.04 8.99541L56.7313 7.92788C56.0356 6.82572 55.0672 5.98079 53.8556 5.39402L52.9839 7.19405ZM55.0445 9.00241C55.5293 9.75665 55.8016 10.6639 55.8306 11.7594L57.8299 11.7065C57.7926 10.2964 57.4351 9.02271 56.7268 7.92089L55.0445 9.00241ZM56.8303 10.733H52.2862V12.733H56.8303V10.733ZM53.2793 11.6151C53.1673 10.6715 52.8335 9.8316 52.2032 9.1917L50.7784 10.5952C51.023 10.8436 51.2195 11.23 51.2932 11.8508L53.2793 11.6151ZM52.2085 9.19715C51.565 8.53384 50.7299 8.22727 49.8004 8.22727V10.2273C50.263 10.2273 50.5548 10.3648 50.773 10.5898L52.2085 9.19715ZM49.8004 8.22727C49.035 8.22727 48.3274 8.44815 47.7189 8.90455L48.9189 10.5045C49.1589 10.3246 49.4389 10.2273 49.8004 10.2273V8.22727ZM47.727 8.89854C47.1141 9.3486 46.6819 9.98665 46.392 10.7356L48.2571 11.4576C48.4445 10.9736 48.6752 10.6836 48.9108 10.5105L47.727 8.89854ZM46.3899 10.741C46.1017 11.4987 45.9766 12.3837 45.9766 13.3636H47.9766C47.9766 12.5405 48.0835 11.9141 48.2592 11.4522L46.3899 10.741ZM45.9766 13.3636C45.9766 14.3446 46.102 15.2328 46.3874 15.9995L48.2617 15.3016C48.0832 14.8221 47.9766 14.1857 47.9766 13.3636H45.9766ZM46.392 16.0116C46.6816 16.7597 47.1119 17.3973 47.7189 17.8526L48.9189 16.2526C48.6774 16.0714 48.4448 15.7743 48.2571 15.2896L46.392 16.0116ZM47.727 17.8586C48.3352 18.3053 49.04 18.5199 49.8004 18.5199V16.5199C49.434 16.5199 49.151 16.423 48.9108 16.2466L47.727 17.8586ZM49.8004 18.5199C50.3971 18.5199 50.967 18.3914 51.4807 18.1049L50.5065 16.3582C50.3308 16.4562 50.1052 16.5199 49.8004 16.5199V18.5199ZM51.4736 18.1088C51.9921 17.8251 52.4048 17.4138 52.7135 16.9053L51.0039 15.8674C50.8618 16.1014 50.6978 16.2535 50.5136 16.3543L51.4736 18.1088ZM52.7175 16.8986C53.0308 16.3734 53.2082 15.772 53.2801 15.1246L51.2923 14.9038C51.2449 15.3303 51.1373 15.6437 50.9998 15.8741L52.7175 16.8986ZM52.2862 16.0142H56.8303V14.0142H52.2862V16.0142ZM55.8309 14.9774C55.79 16.0877 55.5155 17.0143 55.0356 17.7886L56.7357 18.8421C57.4225 17.7338 57.7777 16.4597 57.8296 15.051L55.8309 14.9774ZM55.033 17.7929C54.56 18.5649 53.893 19.173 53.0024 19.6184L53.8968 21.4072C55.1008 20.8052 56.0579 19.9484 56.7383 18.8378L55.033 17.7929ZM53.0046 19.6172C52.1306 20.0515 51.0534 20.2884 49.7408 20.2884V22.2884C51.2918 22.2884 52.6872 22.0082 53.8945 21.4083L53.0046 19.6172Z" fill="black" mask="url(#path-1-outside-1_5_4)"/>
</svg>
